<?xml version="1.0" standalone="no"?>
<!DOCTYPE svg PUBLIC "-//W3C//DTD SVG 20010904//EN"
 "http://www.w3.org/TR/2001/REC-SVG-20010904/DTD/svg10.dtd">
<svg version="1.0" xmlns="http://www.w3.org/2000/svg"
 width="666.000000pt" height="374.000000pt" viewBox="0 0 666.000000 374.000000"
 preserveAspectRatio="xMidYMid meet">

<g transform="translate(0.000000,374.000000) scale(0.100000,-0.100000)"
fill="#ffffff" stroke="none">
<path d="M1356 2528 c-8 -18 -43 -67 -78 -109 -34 -41 -98 -121 -141 -178
l-79 -103 -39 53 c-21 29 -39 56 -39 59 0 4 -26 40 -57 82 -109 142 -174 218
-187 218 -8 0 -32 -24 -54 -54 -23 -30 -53 -67 -67 -82 -14 -15 -25 -31 -25
-37 0 -10 -205 -295 -224 -312 -18 -15 -156 -205 -164 -223 -6 -17 -76 -112
-147 -201 -19 -24 -35 -48 -35 -54 0 -6 37 -68 83 -139 45 -70 87 -136 92
-145 52 -93 120 -193 131 -193 7 0 41 37 76 83 34 45 89 114 121 152 33 39 62
77 65 85 3 8 37 59 76 112 l71 97 320 -2 319 -2 113 -159 c62 -88 117 -162
121 -165 12 -9 127 -174 135 -193 11 -30 32 -20 65 29 17 27 60 84 97 128 91
109 205 259 205 270 0 10 -78 125 -96 140 -10 8 -229 319 -259 367 -16 25
-260 365 -316 441 -28 37 -55 67 -60 67 -5 0 -15 -15 -23 -32z m-468 -235 c51
-67 92 -125 92 -129 0 -4 11 -22 25 -39 l24 -32 -24 -23 c-14 -13 -25 -27 -25
-31 0 -10 -257 -347 -281 -369 -22 -20 -104 -131 -111 -150 -6 -16 -140 -192
-167 -219 -9 -9 -32 -38 -50 -64 -19 -26 -37 -47 -41 -47 -3 0 -14 15 -24 32
-11 18 -36 56 -57 83 -21 28 -42 62 -47 76 -6 14 -35 64 -66 112 -31 48 -56
90 -56 93 0 7 57 80 82 106 9 9 24 32 34 49 16 32 149 214 309 424 47 61 85
114 85 119 0 10 62 96 110 153 l35 42 31 -32 c17 -18 72 -87 122 -154z m538
130 c7 -7 65 -88 130 -180 64 -93 122 -172 128 -178 18 -16 76 -98 76 -107 0
-8 106 -158 241 -341 28 -39 47 -73 43 -80 -13 -21 -166 -219 -192 -246 -13
-14 -38 -45 -54 -68 l-31 -42 -53 72 c-29 40 -111 153 -182 252 -71 99 -136
186 -146 194 -9 7 -16 18 -16 24 0 12 -221 309 -257 346 -14 15 -20 28 -15 35
5 6 62 81 127 166 66 85 123 157 128 159 4 2 13 15 18 29 l10 25 16 -24 c10
-13 23 -30 29 -36z m-225 -550 l140 -188 -140 -3 c-78 -1 -204 -1 -281 0
l-139 3 95 125 c53 69 99 132 103 140 6 15 73 109 78 110 2 0 66 -84 144 -187z"/>
<path d="M2610 2440 c0 -5 15 -10 34 -10 19 0 46 -4 60 -10 22 -8 26 -16 26
-50 0 -51 -21 -192 -66 -439 -60 -334 -63 -341 -131 -341 -23 0 -33 -5 -33
-15 0 -13 25 -15 165 -15 133 0 165 3 165 14 0 9 -17 15 -51 18 -80 8 -78 -7
-29 293 16 94 43 250 61 348 l32 177 84 0 c50 0 97 -6 118 -14 92 -39 107
-180 27 -268 -48 -53 -80 -68 -168 -76 l-75 -7 46 -63 c25 -34 59 -87 75 -118
17 -30 59 -99 94 -152 34 -53 70 -109 80 -124 16 -27 20 -28 101 -28 63 0 85
3 85 13 0 7 -15 17 -32 22 -41 12 -129 121 -241 295 -65 102 -74 121 -60 126
142 44 186 76 229 169 29 62 30 116 3 171 -27 56 -38 64 -112 80 -75 16 -487
20 -487 4z"/>
<path d="M3646 2156 c-21 -8 -67 -34 -102 -57 -72 -49 -92 -85 -140 -244 -33
-114 -40 -263 -12 -292 16 -16 20 -16 50 -1 70 34 192 145 254 232 23 33 24
15 4 -69 -24 -99 -25 -154 -5 -161 23 -9 185 97 185 121 0 8 -34 -7 -59 -27
-35 -26 -61 -24 -61 7 0 48 62 318 103 446 l14 46 -46 -1 c-25 0 -68 3 -96 7
-35 5 -62 3 -89 -7z m99 -56 c30 -11 30 -14 -6 -150 -30 -109 -56 -156 -129
-230 -71 -71 -110 -96 -134 -87 -32 12 -14 174 35 327 26 80 55 129 83 140 29
12 119 12 151 0z"/>
<path d="M4090 2163 c-22 -4 -29 -15 -51 -89 -19 -61 -23 -84 -14 -84 7 0 15
10 19 23 16 64 53 77 158 56 45 -9 65 -8 111 5 30 9 59 16 63 16 5 0 -14 -24
-42 -52 -74 -77 -224 -254 -224 -265 0 -5 -24 -33 -53 -63 -88 -90 -119 -129
-112 -139 4 -7 20 -3 43 9 49 26 93 25 214 -6 79 -20 110 -24 142 -18 39 9 41
11 56 69 9 33 20 70 24 83 12 37 -11 25 -35 -18 -29 -51 -50 -56 -159 -41 -63
9 -98 9 -134 1 -27 -6 -51 -8 -54 -6 -2 3 12 20 32 38 20 17 36 36 36 40 0 12
226 275 297 347 29 29 53 62 53 73 0 18 -1 17 -29 -3 -26 -19 -38 -21 -93 -16
-35 3 -81 12 -103 20 -48 17 -111 26 -145 20z"/>
<path d="M4805 2156 c-81 -26 -160 -88 -190 -146 -60 -119 -106 -334 -86 -407
13 -49 32 -58 74 -37 52 27 175 135 218 192 23 30 43 51 46 48 3 -3 -4 -45
-17 -94 -24 -98 -24 -130 1 -145 18 -11 76 21 149 82 44 37 36 48 -13 16 -40
-28 -65 -32 -73 -11 -9 24 58 319 110 482 6 19 3 21 -41 21 -27 -1 -68 2 -93
6 -28 4 -60 2 -85 -7z m100 -60 c17 -12 18 -18 7 -66 -7 -28 -12 -61 -12 -74
0 -54 -138 -276 -172 -276 -6 0 -24 -11 -40 -26 -17 -14 -40 -24 -52 -22 -19
3 -21 9 -20 78 2 146 78 369 132 389 41 14 135 13 157 -3z"/>
</g>
</svg>
